<svg width="42" height="42" viewBox="0 0 42 42" fill="none" xmlns="http://www.w3.org/2000/svg">
<path d="M33.8476 25.9568C32.4482 25.6557 31.3412 26.3054 30.3609 26.8728C29.3571 27.4576 27.4482 29.006 26.3541 28.6097C20.7523 26.3033 15.4836 21.4002 13.2029 15.7759C12.8009 14.6584 14.3422 12.7374 14.9226 11.7217C15.4858 10.7385 16.1221 9.62098 15.8319 8.21111C15.5696 6.94419 12.1776 2.62797 10.9781 1.44767C10.187 0.668024 9.37664 0.239218 8.54475 0.169916C5.4171 0.0356434 1.92401 4.20892 1.31138 5.20731C-0.223428 7.33618 -0.214829 10.1689 1.33717 13.6037C5.07746 22.8295 19.2239 36.7527 28.4844 40.6336C30.1933 41.4328 31.756 41.8334 33.1597 41.8334C34.5333 41.8334 35.7564 41.4501 36.8076 40.6899C37.6008 40.233 41.9451 36.5665 41.8312 33.3547C41.7624 32.5361 41.3346 31.7175 40.565 30.9248C39.3935 29.7142 35.1051 26.221 33.8476 25.9568Z" fill="#2A4ABD"/>
</svg>
